HIERARCHY
ROOT Hips
{
	OFFSET	0.00	0.00	0.00
	CHANNELS 6 Xposition Yposition Zposition Zrotation Xrotation Yrotation
	JOINT LeftUpLeg
	{
		OFFSET	 0.126116	-0.014019	-0.065224
		CHANNELS 3 Zrotation Xrotation Yrotation
		JOINT LeftLeg
		{
			OFFSET	 0.000000	 0.000000	 0.569914
			CHANNELS 3 Zrotation Xrotation Yrotation
			JOINT LeftFoot
			{
				OFFSET	 0.000000	 0.000000	 0.544423
				CHANNELS 3 Zrotation Xrotation Yrotation
				JOINT LeftToeBase
				{
					OFFSET	 0.000000	 0.000000	 0.207117
					CHANNELS 3 Zrotation Xrotation Yrotation
					End Site
					{
						OFFSET	 0.000000	 0.000000	 0.207117
					}
				}
			}
		}
	}
	JOINT RightUpLeg
	{
		OFFSET	-0.124023	-0.008373	-0.065224
		CHANNELS 3 Zrotation Xrotation Yrotation
		JOINT RightLeg
		{
			OFFSET	 0.000000	 0.000000	 0.570047
			CHANNELS 3 Zrotation Xrotation Yrotation
			JOINT RightFoot
			{
				OFFSET	 0.000000	 0.000000	 0.544354
				CHANNELS 3 Zrotation Xrotation Yrotation
				JOINT RightToeBase
				{
					OFFSET	 0.000000	 0.000000	 0.207540
					CHANNELS 3 Zrotation Xrotation Yrotation
					End Site
					{
						OFFSET	 0.000000	 0.000000	 0.207540
					}
				}
			}
		}
	}
	JOINT Spine
	{
		OFFSET	 0.000184	-0.007763	 0.117403
		CHANNELS 3 Zrotation Xrotation Yrotation
		JOINT Spine1
		{
			OFFSET	 0.000000	 0.000000	 0.137269
			CHANNELS 3 Zrotation Xrotation Yrotation
			JOINT Spine2
			{
				OFFSET	 0.000000	 0.000000	 0.156879
				CHANNELS 3 Zrotation Xrotation Yrotation
				JOINT LeftShoulder
				{
					OFFSET	 0.080501	-0.002496	 0.160144
					CHANNELS 3 Zrotation Xrotation Yrotation
					JOINT LeftArm
					{
						OFFSET	 0.000000	 0.000000	 0.164363
						CHANNELS 3 Zrotation Xrotation Yrotation
						JOINT LeftForeArm
						{
							OFFSET	 0.000000	 0.000000	 0.364576
							CHANNELS 3 Zrotation Xrotation Yrotation
							JOINT LeftHand
							{
								OFFSET	 0.000000	 0.000000	 0.360812
								CHANNELS 3 Zrotation Xrotation Yrotation
								JOINT LeftHandIndex1
								{
									OFFSET	 0.000000	 0.000000	 0.086006
									CHANNELS 3 Zrotation Xrotation Yrotation
									JOINT LeftHandIndex2
									{
										OFFSET	 0.000000	 0.000000	 0.047237
										CHANNELS 3 Zrotation Xrotation Yrotation
										JOINT LeftHandIndex3
										{
											OFFSET	-0.004284	-0.000551	 0.038165
											CHANNELS 3 Zrotation Xrotation Yrotation
											End Site
											{
												OFFSET	-0.004284	-0.000551	 0.038165
											}
										}
									}
								}
							}
						}
					}
				}
				JOINT Neck
				{
					OFFSET	 0.000000	 0.000000	 0.176489
					CHANNELS 3 Zrotation Xrotation Yrotation
					JOINT Head
					{
						OFFSET	 0.000000	-0.001747	 0.077940
						CHANNELS 3 Zrotation Xrotation Yrotation
						End Site
						{
							OFFSET	 0.000000	-0.001747	 0.077940
						}
					}
				}
				JOINT RightShoulder
				{
					OFFSET	-0.080363	 0.000306	 0.159706
					CHANNELS 3 Zrotation Xrotation Yrotation
					JOINT RightArm
					{
						OFFSET	 0.000000	 0.000000	 0.164196
						CHANNELS 3 Zrotation Xrotation Yrotation
						JOINT RightForeArm
						{
							OFFSET	 0.000000	 0.000000	 0.365611
							CHANNELS 3 Zrotation Xrotation Yrotation
							JOINT RightHand
							{
								OFFSET	 0.000000	 0.000000	 0.360648
								CHANNELS 3 Zrotation Xrotation Yrotation
								JOINT RightHandIndex1
								{
									OFFSET	 0.000000	 0.000000	 0.069977
									CHANNELS 3 Zrotation Xrotation Yrotation
									JOINT RightHandIndex2
									{
										OFFSET	 0.000000	 0.000000	 0.052305
										CHANNELS 3 Zrotation Xrotation Yrotation
										JOINT RightHandIndex3
										{
											OFFSET	 0.009002	-0.000782	 0.042196
											CHANNELS 3 Zrotation Xrotation Yrotation
											End Site
											{
												OFFSET	 0.009002	-0.000782	 0.042196
											}
										}
									}
								}
							}
						}
					}
				}
			}
		}
	}
}
MOTION
Frames:    4
Frame Time: 0.03333334
-0.414721	 0.194484	 1.223466	-174.870600	 1.662533	 12.314460	 34.034620	-4.122506	 167.649100	-8.442986	-41.608710	-6.006927	 143.960000	 75.105720	-157.003400	-2.385833	 28.452760	 0.000004	-19.395270	-33.283890	 161.625700	 6.003304	-52.671340	 3.565555	-3.264692	 77.797600	 21.299950	 2.384659	 28.388700	-0.000001	 34.465950	-3.621728	-7.961722	 39.240450	 9.110842	 30.509020	 6.130962	 5.663076	-12.755000	-91.776140	 78.527380	 180.000000	-12.740260	 41.744320	-3.115612	-1.910977	-1.073740	-94.402110	 4.411366	-26.844530	-0.698786	-4.130319	 21.525730	 0.991547	-5.167930	 0.731704	 3.519349	-1.378229	 35.397820	-2.634230	-18.058780	 7.470957	 7.608979	-19.958160	-23.295480	-14.382530	 89.782340	 78.367950	 179.970700	 48.314730	-5.496891	-23.180020	-12.716850	-8.274920	 54.385700	-6.919985	 2.800878	-53.494760	 5.716227	 19.173190	-3.685159	 5.027444	 0.246877	-9.377972	-2.350882	 35.473990	 5.254307
-0.417060	 0.198995	 1.224484	-174.475000	 1.512585	 11.977930	 34.448490	-3.117144	 167.616500	-8.373591	-40.643770	-5.847108	 143.777600	 75.406200	-156.792800	-2.385833	 28.452760	 0.000004	-19.101450	-32.798360	 162.386900	 6.249470	-52.603540	 3.758378	-2.847693	 78.160380	 20.400150	 2.384659	 28.388700	-0.000001	 33.792790	-2.734510	-7.748682	 38.770880	 7.928114	 30.803430	 6.310415	 6.064585	-12.482440	-91.776220	 78.527420	-180.000000	-13.742430	 40.531800	-0.793214	-1.923660	-1.115559	-95.064020	 4.689066	-27.181300	-0.602485	-4.130319	 21.525730	 0.991547	-5.167930	 0.731704	 3.519349	-1.378229	 35.397820	-2.634230	-17.715730	 7.821683	 7.591800	-19.884850	-23.764240	-14.484650	 89.782330	 78.363510	 179.971700	 47.530910	-8.947702	-26.175420	-11.837830	-7.921584	 57.200950	-9.512960	 3.410030	-51.694360	 5.716227	 19.173190	-3.685159	 5.027444	 0.246877	-9.377972	-2.350882	 35.473990	 5.254307
-0.419303	 0.202974	 1.225538	-174.223500	 1.332687	 11.198850	 34.737120	-1.736773	 168.082900	-8.474450	-39.484000	-5.774083	 143.299700	 75.320780	-156.192600	-2.385833	 28.452760	 0.000004	-18.204410	-32.647130	 163.675900	 6.194470	-52.642680	 3.716503	-0.952829	 78.302380	 18.159120	 2.384659	 28.388700	-0.000001	 33.331090	-1.729346	-7.118392	 38.302540	 7.014366	 31.092060	 6.396569	 6.277365	-12.212820	-91.776190	 78.527330	 180.000000	-14.804160	 39.529980	 1.272541	-1.935463	-1.136779	-95.678360	 4.886203	-27.661320	-0.509144	-4.130319	 21.525730	 0.991547	-5.167930	 0.731704	 3.519349	-1.378229	 35.397820	-2.634230	-17.574770	 7.743361	 8.084928	-19.765160	-23.494380	-15.297890	 89.782250	 78.360980	 179.972500	 46.606880	-11.625000	-28.641930	-11.214860	-7.614867	 59.296380	-11.476790	 3.574196	-50.449310	 5.716227	 19.173190	-3.685159	 5.027444	 0.246877	-9.377972	-2.350882	 35.473990	 5.254307
-0.421893	 0.207818	 1.226822	-173.777400	 1.045990	 10.331340	 35.140460	-0.043232	 168.488600	-8.601261	-37.872620	-5.655044	 142.625900	 75.266780	-155.331200	-2.385833	 28.452760	 0.000004	-17.147360	-32.433930	 165.178800	 6.146214	-52.656090	 3.678716	 1.514670	 78.495700	 15.183590	 2.384659	 28.388700	-0.000001	 32.575760	-0.583660	-6.301973	 37.807170	 5.610741	 31.425400	 6.576962	 6.746873	-11.970950	-91.776250	 78.527380	-180.000000	-16.182190	 38.480630	 3.824234	-1.947245	-1.102446	-96.455170	 5.143322	-28.432230	-0.397594	-4.130319	 21.525730	 0.991547	-5.167930	 0.731704	 3.519349	-1.378229	 35.397820	-2.634230	-17.309890	 7.674382	 8.462270	-19.533100	-23.347240	-15.742450	 89.782340	 78.355780	 179.973500	 45.231860	-14.185270	-30.290610	-10.840990	-7.124647	 59.618060	-14.129690	 2.563534	-48.360060	 5.716227	 19.173190	-3.685159	 5.027444	 0.246877	-9.377972	-2.350882	 35.473990	 5.254307
